<?xml version="1.0" encoding="UTF-8" standalone="no"?>
<!-- Created with Inkscape (http://www.inkscape.org/) -->

<svg
   xmlns:dc="http://purl.org/dc/elements/1.1/"
   xmlns:cc="http://creativecommons.org/ns#"
   xmlns:rdf="http://www.w3.org/1999/02/22-rdf-syntax-ns#"
   xmlns:svg="http://www.w3.org/2000/svg"
   xmlns="http://www.w3.org/2000/svg"
   xmlns:xlink="http://www.w3.org/1999/xlink"
   xmlns:sodipodi="http://sodipodi.sourceforge.net/DTD/sodipodi-0.dtd"
   xmlns:inkscape="http://www.inkscape.org/namespaces/inkscape"
   version="1.0"
   width="256"
   height="256"
   id="svg2479"
   inkscape:version="0.48.0 r9654"
   sodipodi:docname="icon.svg">
  <metadata
     id="metadata3785">
    <rdf:RDF>
      <cc:Work
         rdf:about="">
        <dc:format>image/svg+xml</dc:format>
        <dc:type
           rdf:resource="http://purl.org/dc/dcmitype/StillImage" />
      </cc:Work>
    </rdf:RDF>
  </metadata>
  <sodipodi:namedview
     pagecolor="#ffffff"
     bordercolor="#666666"
     borderopacity="1"
     objecttolerance="10"
     gridtolerance="10"
     guidetolerance="10"
     inkscape:pageopacity="0"
     inkscape:pageshadow="2"
     inkscape:window-width="640"
     inkscape:window-height="480"
     id="namedview3783"
     showgrid="false"
     inkscape:zoom="1.1948466"
     inkscape:cx="100"
     inkscape:cy="115.49599"
     inkscape:window-x="0"
     inkscape:window-y="24"
     inkscape:window-maximized="0"
     inkscape:current-layer="svg2479" />
  <style
     type="text/css"
     id="style2481" />
  <defs
     id="defs2485">
    <linearGradient
       x1="0.47058824"
       y1="0.92957747"
       x2="0.4852941"
       y2="0.0070422534"
       id="linearGradient3502">
      <stop
         id="stop3504"
         style="stop-color:#000000;stop-opacity:0"
         offset="0" />
      <stop
         id="stop3506"
         style="stop-color:#000000;stop-opacity:0.28666666"
         offset="1" />
    </linearGradient>
    <linearGradient
       id="linearGradient3462">
      <stop
         id="stop3464"
         style="stop-color:#000000;stop-opacity:0.19333333"
         offset="0" />
      <stop
         id="stop3488"
         style="stop-color:#000000;stop-opacity:0.06666667"
         offset="0.87012404" />
      <stop
         id="stop3466"
         style="stop-color:#000000;stop-opacity:0"
         offset="1" />
    </linearGradient>
    <linearGradient
       id="linearGradient3438">
      <stop
         id="stop3440"
         style="stop-color:#ec8112;stop-opacity:1"
         offset="0" />
      <stop
         id="stop3442"
         style="stop-color:#ffe2c2;stop-opacity:1"
         offset="1" />
    </linearGradient>
    <linearGradient
       id="linearGradient3430">
      <stop
         id="stop3432"
         style="stop-color:#ffffff;stop-opacity:1"
         offset="0" />
      <stop
         id="stop3434"
         style="stop-color:#e6e6e6;stop-opacity:0.15333334"
         offset="1" />
    </linearGradient>
    <filter
       id="filter3410"
       x="-0.11413536"
       width="1.2282706"
       y="-0.42560714"
       height="1.8512143"
       color-interpolation-filters="sRGB">
      <feGaussianBlur
         inkscape:collect="always"
         stdDeviation="2.6069617"
         id="feGaussianBlur3412" />
    </filter>
    <filter
       id="filter3470"
       x="-0.17703706"
       width="1.3540741"
       y="-0.98219097"
       height="2.9643819"
       color-interpolation-filters="sRGB">
      <feGaussianBlur
         inkscape:collect="always"
         stdDeviation="5.8046463"
         id="feGaussianBlur3472" />
    </filter>
    <linearGradient
       x1="349.71835"
       y1="168.53163"
       x2="347.19263"
       y2="180.38321"
       id="linearGradient2536"
       xlink:href="#linearGradient3438"
       gradientUnits="userSpaceOnUse"
       gradientTransform="translate(20,0)" />
    <linearGradient
       x1="356.42767"
       y1="159.89401"
       x2="422.03259"
       y2="162.66588"
       id="linearGradient2538"
       xlink:href="#linearGradient3502"
       gradientUnits="userSpaceOnUse"
       gradientTransform="translate(20,0)" />
    <linearGradient
       x1="313.72845"
       y1="99.267982"
       x2="364.8262"
       y2="83.724937"
       id="linearGradient2540"
       xlink:href="#linearGradient3430"
       gradientUnits="userSpaceOnUse"
       gradientTransform="translate(20,0)" />
    <linearGradient
       x1="379.60168"
       y1="127.70319"
       x2="341.81671"
       y2="127.70319"
       id="linearGradient2542"
       xlink:href="#linearGradient3462"
       gradientUnits="userSpaceOnUse"
       gradientTransform="translate(20,0)" />
  </defs>
  <g
     transform="matrix(2.2690508,0,0,2.2690508,-760.07147,-157.68252)"
     id="g3510">
    <path
       d="m 319.27001,172.33393 c -1.82686,3.90064 -20.87287,6.79913 -42.5134,6.46984 -21.64054,-0.32928 -37.72121,-3.76227 -35.89435,-7.66291 1.82686,-3.90064 20.87286,-6.79913 42.5134,-6.46984 21.57867,0.32834 37.63353,3.74025 35.90881,7.63117"
       transform="matrix(0.9953049,0,0,0.5951392,102.6778,70.297121)"
       id="path3456"
       style="fill:#000000;fill-opacity:1;fill-rule:evenodd;stroke:none;filter:url(#filter3470)"
       inkscape:connector-curvature="0" />
    <path
       d="m 335.81098,153.75017 c -0.3129,0.24919 -0.33568,1.09711 -0.33761,1.27472 -0.0423,3.89635 25.14717,26.67986 32.14747,26.78956 8.07288,0.12651 54.83181,-15.22798 54.98555,-18.97924 0.0364,-0.88884 0.014,-1.3968 -0.93027,-1.35961 -32.37714,3.21084 -55.69746,7.89452 -85.86514,-7.72543 z"
       id="path3414"
       style="fill:none;stroke:#422500;stroke-width:1px;stroke-linecap:round;stroke-linejoin:round;stroke-opacity:1"
       inkscape:connector-curvature="0" />
    <path
       d="m 359.10313,144.64457 c -10.67742,3.38573 -23.4755,7.92355 -23.49238,9.47938 -0.0423,3.89635 25.14717,26.67986 32.14747,26.78956 8.07288,0.12651 54.86496,-15.0673 54.81555,-18.82138 -0.0457,-3.475 -18.95876,-11.49433 -28.30076,-17.31018 l -0.13738,-0.27477 c 0,0 -33.10915,-0.27476 -35.0325,0.13739 z"
       id="path2628"
       style="fill:url(#linearGradient2536);fill-opacity:1;fill-rule:evenodd;stroke:none"
       inkscape:connector-curvature="0" />
    <path
       d="m 359.10313,144.64457 c -10.67742,3.38573 -23.4755,7.92355 -23.49238,9.47938 -0.0423,3.89635 25.14717,26.67986 32.14747,26.78956 8.07288,0.12651 54.86496,-15.0673 54.81555,-18.82138 -0.0457,-3.475 -18.95876,-11.49433 -28.30076,-17.31018 l -0.13738,-0.27477 c 0,0 -33.10915,-0.27476 -35.0325,0.13739 z"
       id="path3498"
       style="fill:url(#linearGradient2538);fill-opacity:1;fill-rule:evenodd;stroke:#643800;stroke-width:1px;stroke-linecap:butt;stroke-linejoin:miter;stroke-opacity:1"
       inkscape:connector-curvature="0" />
    <path
       d="m 303.38049,162.93109 c -1.27264,5.03674 -14.54068,8.77944 -29.61615,8.35424 -15.07548,-0.42519 -26.27777,-4.85806 -25.00512,-9.89479 1.27264,-5.03674 14.54068,-8.77944 29.61615,-8.35425 15.03238,0.42398 26.21669,4.82963 25.0152,9.85382"
       transform="matrix(1.0751842,0,0,1.0751842,79.518677,-16.176019)"
       id="path2630"
       style="fill:#000000;fill-opacity:0.82019707;fill-rule:evenodd;stroke:none;filter:url(#filter3410)"
       inkscape:connector-curvature="0" />
    <path
       d="m 372.84137,82.13559 -22.94286,74.736 c 9.77525,11.8143 42.47986,14.01697 52.75483,-0.13738 L 380.3974,82.13559 c -2.1609,-1.40743 -5.56144,-0.75815 -7.55603,0 z"
       id="path2622"
       style="fill:#e27200;fill-opacity:1;fill-rule:evenodd;stroke:none"
       inkscape:connector-curvature="0" />
    <path
       d="m 368.99466,94.774769 -3.29718,12.227031 c 10.52241,6.04035 16.34182,2.79179 21.91249,0.34345 l -3.57194,-12.227026 c -4.03409,2.205253 -9.54893,2.927636 -15.04337,-0.343455 z"
       id="path2624"
       style="fill:#e6e6e6;fill-opacity:1;fill-rule:evenodd;stroke:none"
       inkscape:connector-curvature="0" />
    <path
       d="m 358.34752,129.39512 c 12.38255,9.15657 28.73706,6.31337 35.78811,-0.89298 l 4.12147,13.46347 c -13.72093,10.56525 -29.50961,12.94508 -43.96235,0.8243 l 4.05277,-13.39479 z"
       id="path2626"
       style="fill:#e6e6e6;fill-opacity:1;fill-rule:evenodd;stroke:none"
       inkscape:connector-curvature="0" />
    <path
       d="m 379.77472,82.656356 c -1.58594,1.78322 -4.17886,1.322664 -6.80009,0 l -22.73169,74.023724 c 32.62066,-22.20086 28.15148,-46.66402 29.53178,-74.023724 z"
       id="path3428"
       style="opacity:0.75;fill:url(#linearGradient2540);fill-opacity:1;fill-rule:evenodd;stroke:none"
       inkscape:connector-curvature="0" />
    <path
       d="m 358.5625,129.5625 -4.09375,13.375 c 2.3,1.90736 4.64688,3.45541 7,4.65625 4.29031,-4.18065 7.54748,-8.43913 10,-12.78125 -4.40548,-0.66729 -8.86771,-2.32008 -12.90625,-5.25 z"
       id="path3474"
       style="fill:#f5f5f5;fill-opacity:1;fill-rule:evenodd;stroke:none"
       inkscape:connector-curvature="0" />
    <path
       d="M 369.21875,94.90625 367.125,101.71875 365.6875,107 c 5.32635,3.05757 9.44352,3.70654 12.9375,3.3125 0.44201,-4.42728 0.63693,-8.93824 0.75,-13.53125 -3.12161,0.558636 -6.64223,0.148785 -10.15625,-1.875 z"
       id="path3481"
       style="fill:#ececec;fill-opacity:1;fill-rule:evenodd;stroke:none"
       inkscape:connector-curvature="0" />
    <path
       d="m 372.84137,82.13559 -22.94286,74.736 c 9.77525,11.8143 42.47986,14.01697 52.75483,-0.13738 L 380.3974,82.13559 c -1.61137,-1.544812 -6.11097,-1.445062 -7.55603,0 z"
       id="path3446"
       style="fill:url(#linearGradient2542);fill-opacity:1;fill-rule:evenodd;stroke:#4f2c00;stroke-width:1px;stroke-linecap:butt;stroke-linejoin:miter;stroke-opacity:1"
       inkscape:connector-curvature="0" />
  </g>
</svg>
